<svg width="202" height="56" viewBox="0 0 202 56" fill="none" xmlns="http://www.w3.org/2000/svg">
<g clip-path="url(#clip0_3_8265)">
<rect x="28.2832" y="27.125" width="7" height="1.75" fill="#111118"/>
<rect x="24.2656" y="31.5" width="7" height="1.75" transform="rotate(120 24.2656 31.5)" fill="#111118"/>
<rect x="22.3125" y="24.9375" width="7" height="1.75" transform="rotate(-120 22.3125 24.9375)" fill="#111118"/>
<path d="M16.1875 5.25L23.1875 9.1875V17.0625L16.1875 21L9.1875 17.0625V9.1875L16.1875 5.25Z" fill="#57369E"/>
<path d="M42 20.125L49 24.0625V31.9375L42 35.875L35 31.9375V24.0625L42 20.125Z" fill="#57369E"/>
<path d="M25.375 22.75L29.75 25.375V30.625L25.375 33.25L21 30.625V25.375L25.375 22.75Z" fill="#00A7D3"/>
<path d="M16.1875 35L23.1875 38.9375V46.8125L16.1875 50.75L9.1875 46.8125V38.9375L16.1875 35Z" fill="#57369E"/>
<path d="M67.305 26.5305C67.1277 26.2039 66.871 25.9565 66.535 25.7885C66.2083 25.6112 65.821 25.5225 65.373 25.5225C64.5983 25.5225 63.9777 25.7792 63.511 26.2925C63.0443 26.7965 62.811 27.4732 62.811 28.3225C62.811 29.2279 63.0537 29.9372 63.539 30.4505C64.0337 30.9545 64.7103 31.2065 65.569 31.2065C66.157 31.2065 66.6517 31.0572 67.053 30.7585C67.4637 30.4599 67.7623 30.0305 67.949 29.4705H64.911V27.7065H70.119V29.9325C69.9417 30.5299 69.6383 31.0852 69.209 31.5985C68.789 32.1119 68.2523 32.5272 67.599 32.8445C66.9457 33.1619 66.2083 33.3205 65.387 33.3205C64.4163 33.3205 63.5483 33.1105 62.783 32.6905C62.027 32.2612 61.4343 31.6685 61.005 30.9125C60.585 30.1565 60.375 29.2932 60.375 28.3225C60.375 27.3519 60.585 26.4885 61.005 25.7325C61.4343 24.9672 62.027 24.3745 62.783 23.9545C63.539 23.5252 64.4023 23.3105 65.373 23.3105C66.549 23.3105 67.5383 23.5952 68.341 24.1645C69.153 24.7339 69.6897 25.5225 69.951 26.5305H67.305Z" fill="#111118"/>
<path d="M73.8391 31.4025H76.9751V33.2505H71.4451V23.4225H73.8391V31.4025Z" fill="#111118"/>
<path d="M86.5449 23.4225L83.1429 30.0025V33.2505H80.7489V30.0025L77.3469 23.4225H80.0629L81.9669 27.5385L83.8569 23.4225H86.5449Z" fill="#111118"/>
<path d="M87.1035 28.3225C87.1035 27.3519 87.3135 26.4885 87.7335 25.7325C88.1535 24.9672 88.7369 24.3745 89.4835 23.9545C90.2395 23.5252 91.0935 23.3105 92.0455 23.3105C93.2122 23.3105 94.2108 23.6185 95.0415 24.2345C95.8722 24.8505 96.4275 25.6905 96.7075 26.7545H94.0755C93.8795 26.3439 93.5995 26.0312 93.2355 25.8165C92.8809 25.6019 92.4749 25.4945 92.0175 25.4945C91.2802 25.4945 90.6829 25.7512 90.2255 26.2645C89.7682 26.7779 89.5395 27.4639 89.5395 28.3225C89.5395 29.1812 89.7682 29.8672 90.2255 30.3805C90.6829 30.8939 91.2802 31.1505 92.0175 31.1505C92.4749 31.1505 92.8809 31.0432 93.2355 30.8285C93.5995 30.6139 93.8795 30.3012 94.0755 29.8905H96.7075C96.4275 30.9545 95.8722 31.7945 95.0415 32.4105C94.2108 33.0172 93.2122 33.3205 92.0455 33.3205C91.0935 33.3205 90.2395 33.1105 89.4835 32.6905C88.7369 32.2612 88.1535 31.6685 87.7335 30.9125C87.3135 30.1565 87.1035 29.2932 87.1035 28.3225Z" fill="#111118"/>
<path d="M104.292 31.5145H100.624L100.036 33.2505H97.5296L101.086 23.4225H103.858L107.414 33.2505H104.88L104.292 31.5145ZM103.676 29.6665L102.458 26.0685L101.254 29.6665H103.676Z" fill="#111118"/>
<path d="M117.288 33.2505H114.894L110.89 27.1885V33.2505H108.496V23.4225H110.89L114.894 29.5125V23.4225H117.288V33.2505Z" fill="#111118"/>
<path d="M125.043 27.3425V29.3305H118.883V27.3425H125.043Z" fill="#111118"/>
<path d="M134.634 26.5865C134.634 27.1559 134.504 27.6785 134.242 28.1545C133.981 28.6212 133.58 28.9992 133.038 29.2885C132.497 29.5779 131.825 29.7225 131.022 29.7225H129.538V33.2505H127.144V23.4225H131.022C131.806 23.4225 132.469 23.5579 133.01 23.8285C133.552 24.0992 133.958 24.4725 134.228 24.9485C134.499 25.4245 134.634 25.9705 134.634 26.5865ZM130.84 27.8185C131.298 27.8185 131.638 27.7112 131.862 27.4965C132.086 27.2819 132.198 26.9785 132.198 26.5865C132.198 26.1945 132.086 25.8912 131.862 25.6765C131.638 25.4619 131.298 25.3545 130.84 25.3545H129.538V27.8185H130.84Z" fill="#111118"/>
<path d="M141.999 31.5145H138.331L137.743 33.2505H135.237L138.793 23.4225H141.565L145.121 33.2505H142.587L141.999 31.5145ZM141.383 29.6665L140.165 26.0685L138.961 29.6665H141.383Z" fill="#111118"/>
<path d="M153.273 23.4225V25.3405H150.669V33.2505H148.275V25.3405H145.671V23.4225H153.273Z" fill="#111118"/>
<path d="M162.986 23.4225V33.2505H160.592V29.2045H156.868V33.2505H154.474V23.4225H156.868V27.2725H160.592V23.4225H162.986Z" fill="#111118"/>
<path d="M178.239 23.4225L175.677 33.2505H172.779L171.211 26.7825L169.587 33.2505H166.689L164.197 23.4225H166.759L168.173 30.5765L169.923 23.4225H172.555L174.235 30.5765L175.663 23.4225H178.239Z" fill="#111118"/>
<path d="M185.557 31.5145H181.889L181.301 33.2505H178.795L182.351 23.4225H185.123L188.679 33.2505H186.145L185.557 31.5145ZM184.941 29.6665L183.723 26.0685L182.519 29.6665H184.941Z" fill="#111118"/>
<path d="M198.189 23.4225L194.787 30.0025V33.2505H192.393V30.0025L188.991 23.4225H191.707L193.611 27.5385L195.501 23.4225H198.189Z" fill="#111118"/>
</g>
<defs>
<clipPath id="clip0_3_8265">
<rect width="201.25" height="56" fill="white"/>
</clipPath>
</defs>
</svg>
