<svg width="30" height="30" viewBox="0 0 30 30" fill="none" xmlns="http://www.w3.org/2000/svg">
<path d="M28.2937 23.4401C28.2937 23.9201 28.187 24.4134 27.9603 24.8934C27.7337 25.3734 27.4403 25.8267 27.0537 26.2534C26.4003 26.9734 25.6803 27.4934 24.867 27.8267C24.067 28.1601 23.2003 28.3334 22.267 28.3334C20.907 28.3334 19.4537 28.0134 17.9203 27.3601C16.387 26.7067 14.8537 25.8267 13.3337 24.7201C11.8003 23.6001 10.347 22.3601 8.96033 20.9867C7.58699 19.6001 6.34699 18.1467 5.24033 16.6267C4.14699 15.1067 3.26699 13.5867 2.62699 12.0801C1.98699 10.5601 1.66699 9.10675 1.66699 7.72008C1.66699 6.81341 1.82699 5.94675 2.14699 5.14675C2.46699 4.33341 2.97366 3.58675 3.68033 2.92008C4.53366 2.08008 5.46699 1.66675 6.45366 1.66675C6.82699 1.66675 7.20033 1.74675 7.53366 1.90675C7.88033 2.06675 8.18699 2.30675 8.42699 2.65341L11.5203 7.01342C11.7603 7.34675 11.9337 7.65341 12.0537 7.94675C12.1737 8.22675 12.2403 8.50675 12.2403 8.76008C12.2403 9.08008 12.147 9.40008 11.9603 9.70675C11.787 10.0134 11.5337 10.3334 11.2137 10.6534L10.2003 11.7067C10.0537 11.8534 9.98699 12.0267 9.98699 12.2401C9.98699 12.3467 10.0003 12.4401 10.027 12.5467C10.067 12.6534 10.107 12.7334 10.1337 12.8134C10.3737 13.2534 10.787 13.8267 11.3737 14.5201C11.9737 15.2134 12.6137 15.9201 13.307 16.6267C14.027 17.3334 14.7203 17.9867 15.427 18.5867C16.1203 19.1734 16.6937 19.5734 17.147 19.8134C17.2137 19.8401 17.2937 19.8801 17.387 19.9201C17.4937 19.9601 17.6003 19.9734 17.7203 19.9734C17.947 19.9734 18.1203 19.8934 18.267 19.7467L19.2803 18.7467C19.6137 18.4134 19.9337 18.1601 20.2403 18.0001C20.547 17.8134 20.8537 17.7201 21.187 17.7201C21.4403 17.7201 21.707 17.7734 22.0003 17.8934C22.2937 18.0134 22.6003 18.1867 22.9337 18.4134L27.347 21.5467C27.6937 21.7867 27.9337 22.0667 28.0803 22.4001C28.2137 22.7334 28.2937 23.0667 28.2937 23.4401Z" stroke="#101010" stroke-width="1.5" stroke-miterlimit="10"/>
</svg>
