<svg width="26" height="24" viewBox="0 0 26 24" fill="none" xmlns="http://www.w3.org/2000/svg">
<path d="M21.2105 8.02514V15.7624C21.2105 16.4418 21.2105 16.7816 21.0792 17.0744C21.036 17.1707 20.9828 17.2621 20.9205 17.3472C20.7308 17.6061 20.4354 17.774 19.8447 18.1097L14.3342 21.2418C13.7565 21.5701 13.4677 21.7343 13.1548 21.7667C13.0519 21.7774 12.9481 21.7774 12.8452 21.7667C12.5323 21.7343 12.2435 21.5701 11.6658 21.2418L6.15531 18.1097C5.56459 17.774 5.26924 17.6061 5.07953 17.3472C5.01718 17.2621 4.96398 17.1707 4.92081 17.0744C4.78947 16.7816 4.78947 16.4418 4.78947 15.7624V8.02514M25 6.19056L14.129 1.18644C13.6361 0.959578 13.3897 0.846146 13.1293 0.823617C13.0432 0.816178 12.9568 0.816178 12.8707 0.823617C12.6103 0.846146 12.3639 0.959578 11.871 1.18644L1 6.19056L11.8235 11.4305C12.3362 11.6787 12.5926 11.8028 12.8649 11.8274C12.9548 11.8356 13.0452 11.8356 13.1351 11.8274C13.4075 11.8028 13.6638 11.6787 14.1765 11.4305L25 6.19056ZM25 6.19056V18.9834C25 19.571 25 19.8648 24.898 20.1271C24.8644 20.2136 24.8228 20.2968 24.7738 20.3756C24.6251 20.6146 24.3901 20.7908 23.92 21.1434L22 22.5834" stroke="#111118" stroke-width="1.5" stroke-linecap="round" stroke-linejoin="round"/>
</svg>
