<svg width="32" height="32" viewBox="0 0 32 32" fill="none" xmlns="http://www.w3.org/2000/svg">
<path d="M20.0003 29.3334H12.0003C5.33366 29.3334 2.66699 26.6667 2.66699 20.0001V12.0001C2.66699 5.33341 5.33366 2.66675 12.0003 2.66675H20.0003C26.667 2.66675 29.3337 5.33341 29.3337 12.0001V20.0001C29.3337 26.6667 26.667 29.3334 20.0003 29.3334Z" stroke="#111118" stroke-width="1.5" stroke-linecap="round" stroke-linejoin="round"/>
<path d="M7.20587 12.8719H10.9152V24.8032H7.20587V12.8719ZM9.06212 11.2407C10.2465 11.2407 11.2121 10.2782 11.2121 9.09067C11.2121 8.80833 11.1565 8.52875 11.0485 8.2679C10.9404 8.00705 10.782 7.77004 10.5824 7.57039C10.3828 7.37075 10.1457 7.21238 9.88489 7.10433C9.62404 6.99628 9.34446 6.94067 9.06212 6.94067C8.77978 6.94067 8.5002 6.99628 8.23935 7.10433C7.9785 7.21238 7.74148 7.37075 7.54184 7.57039C7.34219 7.77004 7.18382 8.00705 7.07578 8.2679C6.96773 8.52875 6.91212 8.80833 6.91212 9.09067C6.90899 10.2782 7.87149 11.2407 9.06212 11.2407ZM16.9465 18.9C16.9465 17.3438 17.2434 15.8375 19.1715 15.8375C21.0715 15.8375 21.0996 17.6157 21.0996 19V24.8032H24.8059V18.2594C24.8059 15.0469 24.1121 12.575 20.359 12.575C18.5559 12.575 17.3465 13.5657 16.8496 14.5032H16.7996V12.8719H13.2402V24.8032H16.9465V18.9Z" fill="#111118"/>
</svg>
